PathFileType	4	(X/Y/Z)	C:\Users\WrightLab\Desktop\Jo\P4V110.trc
DataRate	CameraRate	NumFrames	NumMarkers	Units	OrigDataRate	OrigDataStartFrame	OrigNumFrames
100.00	100.00	       11	19	mm	100.00	475	       633
Frame#	Time	Headset_Front			Headset_Back			Headset_Left			Headset_Right			Left_Shoulder			Right_Shoulder			Sternum			C7			Left Elbow			Right Elbow			Left Wrist			Right Wrist			Left ASIS			Right ASIS			S2			Left Knee			Right Knee			Left Ankle			Right Ankle			
		X1	Y1	Z1	X2	Y2	Z2	X3	Y3	Z3	X4	Y4	Z4	X5	Y5	Z5	X6	Y6	Z6	X7	Y7	Z7	X8	Y8	Z8	X9	Y9	Z9	X10	Y10	Z10	X11	Y11	Z11	X12	Y12	Z12	X13	Y13	Z13	X14	Y14	Z14	X15	Y15	Z15	X16	Y16	Z16	X17	Y17	Z17	X18	Y18	Z18	X19	Y19	Z19	

475	4.740	-63.02108	1661.30884	1902.86035				-135.94963	1704.50281	1778.36633				144.20459	1540.22717	1745.06738	-134.30765	1518.78186	1614.54089	-26.76392	1468.97278	1786.25415				337.05975	1218.59094	1773.87549	-274.45755	1175.20947	1582.09412	331.42722	931.10138	1895.06274	-366.93027	1017.94604	1820.46960	104.57426	1036.90125	1870.27576	-161.89676	1034.49036	1675.98730	105.59679	1059.08228	1639.57849	59.33857	591.61011	1995.05493	-54.56058	562.71515	1581.23682	-24.81201	98.96778	2106.83594	170.85968	109.37269	1426.45007	
476	4.750	-66.45530	1660.59949	1911.04175				-138.96243	1703.35291	1788.81250				141.02354	1539.07910	1755.86755	-136.33879	1516.73132	1624.06262	-29.65472	1468.03479	1796.89697				334.66010	1217.43262	1785.72656	-277.24008	1173.73572	1587.17932	330.16644	930.28217	1907.68604	-373.23410	1013.66846	1826.92810	100.15839	1036.47253	1883.44238	-165.56378	1033.01624	1687.01453	102.17471	1057.95581	1652.58826	52.20154	589.64978	2005.46704	-58.44637	562.14221	1589.96460	-28.71285	95.02204	2107.36328	169.36116	112.77444	1427.24683	
477	4.760	-69.50793	1660.43323	1922.01440				-142.40939	1701.89868	1797.95508				138.58287	1537.70593	1768.02258	-138.67542	1515.51941	1634.54565	-32.21658	1466.58606	1807.74866				331.93839	1216.30444	1797.88293	-279.42981	1172.33679	1597.57129	329.01410	929.11487	1919.39807	-379.06393	1010.57111	1835.01172	95.23248	1035.18591	1895.06165	-169.21558	1031.34473	1697.83533	98.57039	1056.22705	1662.75269	44.65612	588.64233	2018.00232	-63.07747	561.68475	1596.67517	-31.50817	92.65594	2109.18384	168.51250	115.76662	1429.03210	
478	4.770	-73.18777	1659.13708	1931.61304				-145.30557	1701.36353	1808.21228				135.79395	1536.53308	1778.79321	-140.79965	1514.05042	1644.28796	-35.91023	1465.33740	1818.68640				329.38727	1215.08118	1809.74902				327.13098	928.13995	1931.84814	-384.64362	1007.08899	1842.81116	90.32581	1035.30615	1909.06311	-173.18697	1030.08398	1709.04871	94.90284	1055.38049	1674.90454	37.67930	586.11694	2028.72424	-67.80050	560.85455	1606.44519	-33.36634	93.24674	2112.22632	166.98810	118.81321	1430.52930	
479	4.780	-76.46274	1659.53223	1942.80676				-148.05348	1700.04956	1817.42163				132.79253	1534.86963	1789.80151	-143.01329	1512.99072	1655.63794	-38.28314	1464.74927	1829.66870				326.71167	1213.85767	1821.26721	-284.38693	1169.58582	1619.69519	325.27252	926.89886	1943.57642	-390.08823	1002.55243	1848.34729	84.81438	1034.80579	1920.73254	-177.20956	1028.58838	1720.30762	91.51176	1052.53430	1688.86487	30.68032	584.93054	2040.86951	-72.98272	559.41437	1615.74219	-37.47230	95.43043	2115.57349	165.06216	123.08781	1432.25549	
480	4.790	-80.03185	1658.85864	1952.47070				-151.24002	1698.92700	1827.97388				130.25375	1533.88928	1801.42236	-145.10620	1512.60303	1664.94604	-42.46123	1464.14185	1841.35535				323.99976	1212.81555	1833.74109	-286.76733	1169.86621	1626.69067	322.52753	925.47772	1956.43799	-395.04166	998.54645	1855.18945	79.48922	1035.10010	1933.81128	-179.90605	1028.27759	1725.74451	87.76451	1052.49451	1701.13501	23.94164	582.70715	2051.38037	-78.75262	559.34595	1625.02148	-40.82756	96.60381	2118.02295	163.20206	126.87606	1434.73718	
481	4.800	-83.33205	1658.93176	1964.09143				-154.09142	1698.81482	1837.69263				127.52686	1532.57788	1813.90552	-147.69806	1512.62476	1675.73169	-45.27056	1464.06970	1851.79529				321.23071	1211.50220	1846.04517	-289.02621	1169.13281	1636.35266	319.50284	924.16949	1969.05701	-400.23901	994.28064	1861.99121	74.17713	1035.48633	1945.66772	-183.97108	1027.40674	1736.65833	83.94079	1051.94775	1715.06445	18.80849	581.93677	2061.90698	-85.12104	559.10175	1635.54565	-42.35659	97.41248	2123.26489	160.34328	131.36882	1437.66113	
482	4.810	-86.66817	1659.21875	1973.73047				-157.38377	1699.67383	1849.19177				124.88937	1532.15930	1826.04578	-149.86821	1512.10266	1686.27478	-48.94557	1464.80688	1864.70691				317.61966	1210.19885	1858.33350				316.38715	922.84283	1980.98718	-404.80753	989.54614	1866.64172	68.76227	1035.86316	1957.92517	-188.06911	1026.51831	1748.32300				14.06828	584.01965	2075.41577	-91.84190	558.55078	1645.87317	-43.02330	97.53575	2125.21533	156.96257	136.61111	1440.84265	
483	4.820	-90.15103	1660.54065	1985.00403				-159.91310	1700.41528	1858.70544				122.24265	1532.05371	1836.85669	-152.71698	1513.41284	1696.61584	-51.95222	1464.50061	1873.43542				313.76248	1210.06042	1872.90527	-293.35168	1169.64758	1656.15503	312.37781	922.27655	1993.80688	-409.10712	985.50403	1872.30371	64.03837	1038.15271	1970.03369	-192.52901	1025.84473	1758.71362				8.12773	585.93671	2087.21631	-99.33576	557.91229	1658.60559	-44.24698	98.33617	2127.63818	153.13718	142.48653	1444.39563	
484	4.830	-93.24687	1661.27393	1995.75952				-162.54379	1702.19690	1869.87207				118.83205	1531.72705	1848.49316	-155.17848	1514.34326	1708.01050	-55.31511	1465.98218	1886.31982				310.03543	1209.34192	1885.65991	-295.67517	1170.84851	1666.40173	308.59293	921.73468	2007.01221	-412.51874	981.23016	1877.76709	59.25180	1039.55798	1980.18945	-196.74739	1025.56445	1769.95142				2.27800	587.07025	2099.97290	-107.15537	556.64069	1672.61377	-45.35383	99.56589	2129.78345	148.92229	147.95319	1449.39172	
485	4.840	-96.62385	1662.44824	2005.87573				-166.18486	1701.46741	1879.65649				115.78062	1532.66992	1860.56519	-157.63925	1515.54749	1718.22754	-58.79448	1466.67896	1896.37366				305.74432	1209.75513	1901.21558	-298.00610	1172.53186	1677.24536	304.40445	921.30310	2020.51807	-415.67303	977.64288	1882.68555	55.34303	1041.62415	1992.21338	-200.99739	1024.82861	1782.01294				-3.01914	590.45251	2114.01465	-115.73811	555.19586	1685.10815	-45.98673	99.49961	2131.15894	143.55640	154.51616	1453.76147	
